<svg
        xmlns="http://www.w3.org/2000/svg"
        xmlns:xlink="http://www.w3.org/1999/xlink"
        width="17px" height="23px">
    <path fill-rule="evenodd"  fill="rgb(246, 197, 93)"
          d="M16.762,11.047 L0.859,0.093 C0.691,-0.023 0.473,-0.035 0.293,0.059 C0.112,0.153 -0.000,0.340 -0.000,0.543 L-0.000,22.453 C-0.000,22.657 0.112,22.843 0.293,22.938 C0.373,22.980 0.461,23.000 0.548,23.000 C0.657,23.000 0.766,22.968 0.859,22.904 L16.762,11.949 C16.911,11.846 16.999,11.678 16.999,11.498 C16.999,11.318 16.911,11.150 16.762,11.047 ZM1.096,21.410 L1.096,1.587 L15.485,11.499 L1.096,21.410 Z"/>
</svg>