<svg xmlns="http://www.w3.org/2000/svg" xmlns:xlink="http://www.w3.org/1999/xlink">
    <symbol id="arrow-right-2" viewBox="0 0 10 14" fill="none">
        <path d="M2.90909 1L7 6.90244L1 12" stroke="currentColor" stroke-width="3"/>
    </symbol>
    <symbol id="your-actions-1" viewBox="0 0 496 496">
        <path d="m312 352c-17.648438 0-32 14.351562-32 32v48c0 17.648438 14.351562 32 32 32s32-14.351562 32-32v-48c0-17.648438-14.351562-32-32-32zm16 80c0 8.824219-7.175781 16-16 16s-16-7.175781-16-16v-48c0-8.824219 7.175781-16 16-16s16 7.175781 16 16zm0 0"/>
        <path d="m152 464h48v-48h-48zm16-32h16v16h-16zm0 0"/>
        <path d="m216 464h48v-48h-48zm16-32h16v16h-16zm0 0"/>
        <path d="m152 400h48v-48h-48zm16-32h16v16h-16zm0 0"/>
        <path d="m216 400h48v-48h-48zm16-32h16v16h-16zm0 0"/>
        <path d="m152 336h48v-48h-48zm16-32h16v16h-16zm0 0"/>
        <path d="m216 336h48v-48h-48zm16-32h16v16h-16zm0 0"/>
        <path d="m328 288h-48v48h48zm-16 32h-16v-16h16zm0 0"/>
        <path d="m256 184h-16c-4.40625 0-8-3.59375-8-8h-16c0 13.230469 10.769531 24 24 24v8h16v-8c13.230469 0 24-10.769531 24-24s-10.769531-24-24-24h-16c-4.40625 0-8-3.59375-8-8s3.59375-8 8-8h16c4.40625 0 8 3.59375 8 8h16c0-13.230469-10.769531-24-24-24v-8h-16v8c-13.230469 0-24 10.769531-24 24s10.769531 24 24 24h16c4.40625 0 8 3.59375 8 8s-3.59375 8-8 8zm0 0"/>
        <path d="m376 364.6875v-180.6875c0-13.230469-10.769531-24-24-24h-16.40625c-4.058594-44.785156-41.769531-80-87.59375-80s-83.535156 35.214844-87.59375 80h-16.40625c-13.230469 0-24 10.769531-24 24v88l-12-16h-12v-56h-16v56h-16v-80h-16v80h-16v-104h-16v104h-16v16h100l20 26.664062v173.335938c0 13.230469 10.769531 24 24 24h208c13.230469 0 24-10.769531 24-24v-84.6875l27.3125-27.3125h92.6875v-16h-99.3125zm-48-148.6875v8h-12.078125c2.125-2.558594 4.101563-5.230469 5.910156-8zm-153.832031 0c1.808593 2.769531 3.785156 5.441406 5.910156 8h-12.078125v-8zm-6.167969 24h160v16h-160zm80-144c39.695312 0 72 32.304688 72 72 0 22.023438-9.824219 42.257812-26.902344 56h-90.195312c-17.078125-13.742188-26.902344-33.976562-26.902344-56 0-39.695312 32.304688-72 72-72zm112 376c0 4.40625-3.59375 8-8 8h-208c-4.40625 0-8-3.59375-8-8v-288c0-4.40625 3.59375-8 8-8h16.457031c.742188 8.335938 2.621094 16.382812 5.582031 24h-14.039062v72h192v-72h-14.039062c2.960937-7.617188 4.839843-15.664062 5.582031-24h16.457031c4.40625 0 8 3.59375 8 8zm0 0"/>
        <path d="m456 312h16v16h-16zm0 0"/>
        <path d="m456 280h16v16h-16zm0 0"/>
        <path d="m472 219.3125 10.34375 10.34375 11.3125-11.3125-29.65625-29.65625-29.65625 29.65625 11.3125 11.3125 10.34375-10.34375v44.6875h16zm0 0"/>
        <path d="m400 240h16v16h-16zm0 0"/>
        <path d="m400 208h16v16h-16zm0 0"/>
        <path d="m416 147.3125 10.34375 10.34375 11.3125-11.3125-29.65625-29.65625-29.65625 29.65625 11.3125 11.3125 10.34375-10.34375v44.6875h16zm0 0"/>
        <path d="m24 112c13.230469 0 24-10.769531 24-24 0-2.367188-.449219-4.609375-1.089844-6.769531l51.523438-37.460938c3.863281 2.65625 8.527344 4.230469 13.566406 4.230469 9.425781 0 17.511719-5.503906 21.433594-13.425781l91.199218 10.730469c2.429688 10.679687 11.960938 18.695312 23.367188 18.695312 7.664062 0 14.433594-3.679688 18.824219-9.296875l77.222656 25.746094c.242187 13.023437 10.875 23.550781 23.953125 23.550781 13.230469 0 24-10.769531 24-24 0-1.246094-.183594-2.449219-.367188-3.640625l64.328126-34.632813c4.253906 3.859376 9.855468 6.273438 16.039062 6.273438 13.230469 0 24-10.769531 24-24s-10.769531-24-24-24-24 10.769531-24 24c0 1.246094.183594 2.449219.367188 3.640625l-64.328126 34.632813c-4.253906-3.859376-9.855468-6.273438-16.039062-6.273438-7.664062 0-14.433594 3.679688-18.824219 9.296875l-77.222656-25.746094c-.242187-13.023437-10.875-23.550781-23.953125-23.550781-9.425781 0-17.511719 5.503906-21.433594 13.425781l-91.199218-10.730469c-2.429688-10.679687-11.960938-18.695312-23.367188-18.695312-13.230469 0-24 10.769531-24 24 0 2.367188.449219 4.609375 1.089844 6.769531l-51.523438 37.46875c-3.863281-2.664062-8.527344-4.238281-13.566406-4.238281-13.230469 0-24 10.769531-24 24s10.769531 24 24 24zm448-96c4.40625 0 8 3.59375 8 8s-3.59375 8-8 8-8-3.59375-8-8 3.59375-8 8-8zm-104 56c4.40625 0 8 3.59375 8 8s-3.59375 8-8 8-8-3.59375-8-8 3.59375-8 8-8zm-120-40c4.40625 0 8 3.59375 8 8s-3.59375 8-8 8-8-3.59375-8-8 3.59375-8 8-8zm-136-16c4.40625 0 8 3.59375 8 8s-3.59375 8-8 8-8-3.59375-8-8 3.59375-8 8-8zm-88 64c4.40625 0 8 3.59375 8 8s-3.59375 8-8 8-8-3.59375-8-8 3.59375-8 8-8zm0 0"/>
    </symbol>
    <symbol id="your-actions-2" viewBox="0 0 496 496">
        <path d="m201.402344 128.128906h-34.617188l32.734375 223.957032h-7.476562c-13.234375 0-24 10.769531-24 24v24h160v-24c0-13.230469-10.769531-24-24-24h-7.480469l32.734375-223.957032h-34.617187c-.09375-5.210937-1.367188-11.066406-2.671876-16.859375-1.09375-4.832031-2.910156-12.910156-2.613281-14.527343 1.566407-1.597657 9.007813-3.894532 13.453125-5.261719 11.808594-3.640625 25.195313-7.769531 25.195313-19.394531 0-11.613282-13.386719-15.742188-25.195313-19.382813-4.445312-1.367187-11.878906-3.664063-13.054687-4.609375-.695313-2.277344 1.128906-10.359375 2.214843-15.191406 2.824219-12.519532 5.746094-25.464844-3.886718-31.136719-9.542969-5.605469-19.023438 3.28125-28.175782 11.90625-3.664062 3.457031-9.800781 9.230469-11.617187 9.742187-2.382813-.511718-8.511719-6.292968-12.175781-9.742187-9.152344-8.625-18.625-17.535156-28.167969-11.914063-9.640625 5.671876-6.71875 18.625-3.894531 31.144532 1.09375 4.832031 2.910156 12.914062 2.613281 14.527344-1.566406 1.601562-9.007813 3.898437-13.453125 5.265624-11.824219 3.640626-25.207031 7.769532-25.207031 19.390626 0 11.617187 13.382812 15.746093 25.191406 19.386718 4.445313 1.367188 11.878906 3.664063 13.054687 4.605469.695313 2.28125-1.128906 10.359375-2.214843 15.191406-1.304688 5.792969-2.578125 11.640625-2.671875 16.859375zm102.640625 239.957032c4.414062 0 8 3.59375 8 8v8h-128v-8c0-4.40625 3.582031-8 8-8zm-32.609375-223.957032-15.183594 207.957032h-13.65625l-17.832031-207.957032zm-32.761719-16c3.488281-3.25 7.640625-6.96875 9.082031-7.371094 1.886719.410157 6.136719 4.128907 9.640625 7.371094zm72.113281 16-30.390625 207.957032h-8.113281l15.183594-207.957032zm-112.839844-67.945312c-3.425781-1.054688-8.496093-2.625-11.703124-4.097656 3.199218-1.480469 8.277343-3.039063 11.710937-4.101563 10.015625-3.089844 18.671875-5.761719 22.382813-12.28125 3.785156-6.648437 1.625-16.207031-.65625-26.328125-.695313-3.097656-1.695313-7.511719-2.152344-10.910156 2.503906 2.015625 5.515625 4.847656 7.632812 6.847656 7.695313 7.246094 14.945313 14.085938 22.882813 14.085938 7.925781 0 15.183593-6.839844 22.871093-14.085938 2.117188-2 5.128907-4.832031 7.632813-6.839844-.457031 3.398438-1.457031 7.816406-2.152344 10.910156-2.28125 10.121094-4.441406 19.671876-.65625 26.328126 3.710938 6.519531 12.367188 9.183593 22.390625 12.28125 3.425782 1.054687 8.503906 2.613281 11.710938 4.09375-3.199219 1.480468-8.277344 3.042968-11.710938 4.105468-10.015625 3.085938-18.671875 5.761719-22.382812 12.28125-3.785156 6.648438-1.625 16.207032.65625 26.328125.695312 3.09375 1.695312 7.511719 2.152344 10.910157-2.503907-2.015626-5.511719-4.847657-7.632813-6.847657-7.6875-7.238281-14.9375-14.089843-22.871094-14.089843-7.929687 0-15.1875 6.84375-22.875 14.089843-2.117187 2-5.125 4.832031-7.628906 6.839844.453125-3.398437 1.453125-7.816406 2.148437-10.910156 2.28125-10.121094 4.441407-19.671875.65625-26.328125-3.726562-6.523438-12.382812-9.1875-22.40625-12.28125zm10.757813 67.945312 17.832031 207.957032h-10.847656l-30.390625-207.957032zm0 0"/>
        <path d="m248.042969 96.085938c13.230469 0 24-10.765626 24-24 0-13.230469-10.769531-24-24-24-13.234375 0-24 10.769531-24 24 0 13.234374 10.765625 24 24 24zm0-32c4.414062 0 8 3.59375 8 8 0 4.410156-3.585938 8-8 8-4.417969 0-8-3.589844-8-8 0-4.40625 3.582031-8 8-8zm0 0"/>
        <path d="m481.769531 349.320312c9.566407-10.714843 15.0625-25.066406 14.175781-40.503906l-2.289062-39.929687-7.992188.457031c-1.640624.09375-3.246093.296875-4.839843.527344.007812-.015625.015625-.03125.023437-.046875 4.929688-14.128907 4.058594-29.328125-2.453125-42.792969l-17.394531-36.015625-7.199219 3.480469c-1.480469.710937-2.894531 1.511718-4.28125 2.34375 0-.023438 0-.039063 0-.054688-.855469-14.9375-7.476562-28.640625-18.636719-38.59375l-29.859374-26.625-5.320313 5.976563c-13.558594 15.207031-17.222656 35.808593-11.566406 53.984375-4.480469-.855469-9.070313-1.222656-13.71875-.96875-14.9375.855468-28.640625 7.480468-38.59375 18.640625l-5.328125 5.976562 29.855468 26.625c2.320313 2.0625 4.847657 3.847657 7.449219 5.496094l13.753907 28.476563c1.351562 2.800781 3 5.410156 4.765624 7.921874l1.816407 31.566407c.175781 3.105469.695312 6.144531 1.375 9.144531l-10.40625 29.855469c-1.015625 2.929687-1.703125 5.945312-2.230469 8.992187l-21.035156 23.59375c-9.949219 11.167969-14.964844 25.535156-14.109375 40.472656.636719 11.085938 4.460937 21.488282 10.949219 30.183594-18.992188 9.0625-54.878907 22.582032-100.636719 22.582032-45.761719 0-81.648438-13.519532-100.640625-22.605469 6.488281-8.707031 10.3125-19.105469 10.949218-30.183594.859376-14.9375-4.160156-29.3125-14.109374-40.472656l-21.042969-23.601563c-.519531-3.03125-1.207031-6.039062-2.222657-8.984375l-10.40625-29.855469c.679688-3.015624 1.199219-6.0625 1.375-9.152343l1.816407-31.558594c1.773437-2.511719 3.414062-5.128906 4.773437-7.929687l13.746094-28.464844c2.609375-1.644532 5.136719-3.429688 7.464844-5.503906l29.847656-26.621094-5.328125-5.976563c-9.953125-11.167969-23.65625-17.785156-38.59375-18.640625-4.640625-.257812-9.238281.113282-13.71875.96875 5.65625-18.167968 1.992187-38.777344-11.566406-53.984375l-5.320313-5.976562-29.847656 26.625c-11.167969 9.953125-17.792969 23.664062-18.648438 38.589843v.050782c-1.402343-.816406-2.816406-1.609375-4.289062-2.320313l-7.199219-3.480469-17.394531 36.015626c-6.503906 13.472656-7.382812 28.664062-2.453125 42.792968.007813.015625.015625.03125.023437.046875-1.59375-.230469-3.199218-.433593-4.839843-.527343l-7.992188-.449219-2.289062 39.9375c-.886719 15.4375 4.609375 29.792969 14.175781 40.503906-1.574219.398437-3.144531.832031-4.710938 1.375l-7.550781 2.632813 13.167969 37.765624c5.09375 14.609376 15.679688 25.746094 28.628906 31.96875-1.3125.976563-2.605468 1.984376-3.847656 3.097657l-5.976562 5.328125 26.617187 29.855468c11.046875 12.390626 26.410156 18.703126 41.832031 18.703126 10.726563 0 21.417969-3.214844 30.769532-9.40625l.496093.558593 1.847657-1.648437c18.933593 9.769531 59.136718 26.527344 112.457031 26.527344 53.316406 0 93.519531-16.757813 112.453125-26.519532l1.847656 1.648438.496094-.558594c9.359375 6.191406 20.035156 9.40625 30.761718 9.40625 15.429688 0 30.792969-6.320312 41.832032-18.703125l26.617187-29.855469-5.976562-5.328125c-1.242188-1.105469-2.539063-2.121093-3.847657-3.097656 12.949219-6.230469 23.535157-17.359375 28.628907-31.96875l13.167969-37.765625-7.550782-2.632812c-1.558594-.550782-3.128906-.992188-4.703125-1.390626zm-357.007812-142.808593c7.953125.457031 15.421875 3.199219 21.648437 7.871093l-17.320312 15.449219c-1.769532 1.582031-3.703125 2.925781-5.710938 4.160157-12.058594-4.375-25.144531-4.488282-37.441406-.207032-4.390625 1.535156-8.480469 3.621094-12.28125 6.101563-.09375-1.070313-.183594-2.136719-.34375-3.199219l22.542969-20.097656c7.976562-7.109375 18.28125-10.65625 28.90625-10.078125zm-48.898438-36.390625 17.304688-15.441406c9.359375 16.078124 6.464843 37.113281-7.949219 49.96875l-17.195312 15.328124c-.574219-1.160156-1.148438-2.328124-1.796876-3.441406-7.082031-15.535156-3.761718-34.480468 9.636719-46.414062zm-7.511719 99.140625c4.648438-9.621094 12.769532-16.855469 22.847657-20.375 7.523437-2.625 15.472656-2.945313 23.019531-1.007813l-10.082031 20.878906c-1.039063 2.144532-2.320313 4.128907-3.6875 6.035157-12.886719.550781-24.960938 5.484375-34.664063 14.140625-3.488281 3.105468-6.472656 6.617187-9.03125 10.378906-.503906-.953125-.984375-1.921875-1.535156-2.839844zm25.609376 145.34375c-1.023438-.316407-2.046876-.664063-3.085938-.917969l-9.953125-28.535156c-3.511719-10.089844-2.898437-20.945313 1.75-30.5625 3.472656-7.175782 8.855469-13.023438 15.570313-16.992188l7.632812 21.90625c.78125 2.253906 1.285156 4.566406 1.652344 6.878906-8.664063 9.472657-13.765625 21.519532-14.519532 34.503907-.261718 4.65625.105469 9.25.953126 13.71875zm-25.703126-66.980469c-2.03125 4.207031-3.449218 8.582031-4.375 13.039062-.824218-.6875-1.640624-1.394531-2.503906-2.03125l1.726563-30.175781c.617187-10.664062 5.34375-20.457031 13.320312-27.570312 5.941407-5.304688 13.167969-8.640625 20.871094-9.734375l-1.328125 23.167968c-.136719 2.359376-.550781 4.679688-1.105469 6.976563-11.605469 5.4375-20.941406 14.613281-26.605469 26.328125zm-36.160156-113.640625 10.09375-20.898437c3.816406 2.898437 6.976563 6.503906 9.523438 10.5625.789062 1.695312 1.679687 3.34375 2.636718 4.957031.464844 1.042969.976563 2.050781 1.351563 3.136719 3.515625 10.089843 2.890625 20.945312-1.757813 30.5625l-10.023437 20.757812c-1.058594-.917969-2.128906-1.824219-3.25-2.671875-4.605469-4.34375-8.183594-9.703125-10.335937-15.847656-3.511719-10.085938-2.886719-20.945313 1.761718-30.558594zm-14.65625 52.589844c4.519532 1.191406 8.703125 3.160156 12.433594 5.730469 1.621094 1.519531 3.359375 2.917968 5.167969 4.238281 8.046875 7.816406 12.789062 18.945312 12.101562 31l-1.328125 23.023437c-1.039062-.351562-2.078125-.703125-3.144531-1-16.277344-5.816406-27.605469-21.71875-26.566406-39.832031zm12.886719 99.257812-7.640625-21.898437c4.832031-.664063 9.65625-.351563 14.273438.714844 1.816406.65625 3.679687 1.214843 5.574218 1.6875 10.515625 4.109374 19.273438 12.597656 23.273438 24.070312l4.417968 12.648438 3.183594 9.128906c-1.121094.078125-2.242187.144531-3.359375.289062-17.21875.839844-33.761719-9.53125-39.722656-26.640625zm42.25 64.871094-15.433594-17.3125c16.082031-9.359375 37.113281-6.464844 49.96875 7.960937l15.441407 17.320313c-16.082032 9.351563-37.113282 6.449219-49.976563-7.96875zm61.925781-2.679687-15.445312-17.320313c-7.113282-7.976563-10.691406-18.238281-10.074219-28.902344.457031-7.953125 3.199219-15.425781 7.871094-21.65625l15.449219 17.328125c7.113281 7.972656 10.6875 18.238282 10.074218 28.902344-.457031 7.953125-3.203125 15.425781-7.875 21.648438zm306.96875-219.015626c1.152344-1.886718 2.199219-3.824218 3.113282-5.816406 2.464843-3.824218 5.582031-7.257812 9.320312-10.097656l10.085938 20.890625c4.648437 9.621094 5.273437 20.480469 1.761718 30.566406-2.144531 6.152344-5.738281 11.511719-10.34375 15.855469-1.121094.839844-2.183594 1.746094-3.242187 2.664062l-10.023438-20.757812c-.007812-.015625-.023437-.042969-.03125-.058594-5.230469-10.871094-5.097656-22.957031-.640625-33.246094zm-38.558594-74.328124 17.3125 15.441406c13.511719 12.046875 16.765626 31.246094 9.421876 46.855468-.566407.984376-1.0625 2-1.566407 3.015626l-17.207031-15.34375c-14.417969-12.855469-17.320312-33.890626-7.960938-49.96875zm-30.210937 79.3125c-2-1.234376-3.933594-2.585938-5.710937-4.160157l-17.320313-15.441406c6.226563-4.671875 13.695313-7.414063 21.648437-7.871094 10.617188-.566406 20.929688 2.96875 28.90625 10.078125l22.558594 20.113282c-.160156 1.0625-.230468 2.136718-.335937 3.207031-3.808594-2.496094-7.902344-4.589844-12.3125-6.125-12.296875-4.289063-25.375-4.1875-37.433594.199219zm9.160156 13.894531c7.539063-1.945313 15.496094-1.609375 23.019531 1.007812 10.070313 3.511719 18.175782 10.738281 22.820313 20.335938.011719.015625.011719.023437.019531.039062l13.140625 27.21875c-.550781.917969-1.03125 1.886719-1.535156 2.839844-2.558594-3.761719-5.542969-7.265625-9.03125-10.375-9.710937-8.664063-21.792969-13.585937-34.664063-14.144531-1.375-1.90625-2.648437-3.890625-3.6875-6.023438zm6.691407 118.488281c.375-2.328125.878906-4.640625 1.664062-6.871094l7.628906-21.914062c6.714844 3.96875 12.105469 9.816406 15.570313 16.992187 4.648437 9.617188 5.261719 20.472657 1.75 30.5625l-9.949219 28.535157c-1.042969.253906-2.066406.597656-3.089844.917968.847656-4.46875 1.214844-9.0625.953125-13.71875-.753906-12.984375-5.863281-25.03125-14.527343-34.503906zm12.65625-45.070312c-.546876-2.289063-.960938-4.609376-1.105469-6.992188l-1.328125-23.160156c7.710937 1.101562 14.925781 4.4375 20.871094 9.734375 7.976562 7.113281 12.703124 16.90625 13.320312 27.570312l.082031 1.4375 1.644531 28.730469c-.863281.636719-1.679687 1.34375-2.503906 2.03125-.925781-4.457031-2.34375-8.839844-4.375-13.039062-5.65625-11.707032-14.992187-20.882813-26.605468-26.3125zm-39.632813 126.71875c-4.671875-6.230469-7.425781-13.695313-7.875-21.648438-.613281-10.664062 2.960937-20.9375 10.074219-28.902344l15.449218-17.328125c4.671876 6.230469 7.421876 13.695313 7.871094 21.65625.617188 10.664063-2.960937 20.933594-10.074218 28.902344zm61.925781 2.679687c-12.863281 14.425781-33.894531 17.3125-49.976562 7.960937l15.433594-17.3125c12.847656-14.410156 33.863281-17.335937 49.96875-7.960937zm42.25-64.863281c-5.9375 17.03125-22.3125 27.40625-39.457031 26.65625-1.199219-.160156-2.40625-.234375-3.617187-.3125l7.59375-21.777344c4.007812-11.472656 12.757812-19.960938 23.273437-24.070312 1.894531-.472657 3.757813-1.03125 5.574219-1.6875 4.617187-1.074219 9.433594-1.378907 14.273437-.714844zm-12.25-36.304688c-1.09375.296875-2.167968.664063-3.238281 1.023438l-1.328125-23.023438c-.6875-12.054687 4.054688-23.183594 12.105469-31 1.804687-1.320312 3.542969-2.71875 5.167969-4.238281 3.726562-2.578125 7.910156-4.539063 12.429687-5.730469l1.335937 23.160156c1.03125 18.089844-10.238281 33.960938-26.472656 39.808594zm0 0"/>
    </symbol>
    <symbol id="your-actions-3" viewBox="0 0 496 496">
        <path d="m467.496094 385.496094-51.496094-15.449219v-12.230469c14.488281-10.144531 24-26.878906 24-45.816406v-28.144531c5.65625-4.191407 10.632812-9.382813 14.65625-15.421875l5.808594-8.714844-20.570313-6.855469c.042969-1.617187.105469-3.230469.105469-4.863281 0-84.550781-55.65625-159.0625-136-183.542969v-14.570312c0-13.621094-7.328125-25.910157-19.207031-32.414063l-1.882813-1.871094c-10.054687-10.066406-23.421875-15.601562-37.652344-15.601562-29.371093 0-53.257812 23.886719-53.257812 53.257812v11.199219c-80.34375 24.480469-136 98.992188-136 183.542969 0 8.238281.535156 16.519531 1.574219 24.625-.988281 4.054688-1.574219 8.269531-1.574219 12.632812v18.742188c0 19.03125-7.289062 35.976562-21.65625 50.34375l-5.664062 5.65625 5.664062 5.65625c5.351562 5.351562 11.535156 9.550781 18.214844 12.617188l-24.054688 7.214843c-17.046875 5.121094-28.503906 20.519531-28.503906 38.328125v72.183594h224v-57.671875c7.953125.992187 15.96875 1.671875 24 1.671875s16.046875-.679688 24-1.671875v57.671875h224v-72.183594c0-17.808594-11.457031-33.207031-28.503906-38.320312zm-84.433594 46.503906h1.882812l6 48h-13.882812zm3.167969-16h-4.46875l-5.683594-17.03125c2.457031.640625 5.074219 1.03125 7.921875 1.03125s5.464844-.390625 7.910156-1.03125zm13.769531-42.199219c-1.984375 3.0625-7.496094 10.199219-16 10.199219s-14.015625-7.144531-16-10.199219v-7.800781c4.6875 1.289062 9.566406 2 14.558594 2h1.210937c5.636719 0 11.085938-.855469 16.230469-2.398438zm24-61.800781c0 22.054688-18.046875 40-40.230469 40h-1.210937c-10.320313 0-20.015625-4.015625-27.300782-11.3125-7.296874-7.296875-11.3125-17-11.304687-27.3125l.007813-17.808594c8.511718-.902344 16.886718-3.253906 24.625-6.933594l12.582031 4.191407c6.34375 2.105469 12.929687 3.175781 19.574219 3.175781h2.410156c7.214844 0 14.246094-1.246094 20.839844-3.601562v19.601562zm-128-120v56h-24.9375l-6.894531-55.191406 12.976562-38.921875 49.757813 14.929687c10.226562 3.070313 17.097656 12.320313 17.097656 23v56.183594h-32v-56zm-112 0v56h-32v-56.183594c0-10.679687 6.871094-19.921875 17.105469-22.992187l49.757812-14.929688 12.976563 38.921875-6.902344 55.183594h-24.9375v-56zm-112 112v-.449219c8.519531-.910156 16.894531-3.253906 24.640625-6.933593 15.765625 4.894531 32.121094 7.382812 48.65625 7.382812h6.703125v8c0 22.054688-17.945312 40-40 40s-40-17.945312-40-40zm37.257812-56c9.957032 0 19.308594 3.871094 26.34375 10.921875l3.664063 3.652344 1.160156.578125c7.132813 3.574218 11.574219 10.75 11.574219 18.734375v6.113281h-6.703125c-15.921875 0-31.65625-2.550781-46.769531-7.585938l-3.144532-1.054687-4.648437 2.328125c-5.871094 2.9375-12.238281 4.832031-18.734375 5.710938v-2.140626c0-20.546874 16.710938-37.257812 37.257812-37.257812zm2.742188 120c5.558594 0 10.929688-.839844 16-2.359375v8.152344c-1.984375 3.070312-7.496094 10.207031-16 10.207031s-14.015625-7.144531-16-10.199219v-8.152343c5.070312 1.511718 10.441406 2.351562 16 2.351562zm-.9375 64h1.882812l6 48h-13.882812zm3.167969-16h-4.46875l-5.683594-17.03125c2.449219.640625 5.074219 1.03125 7.921875 1.03125s5.472656-.390625 7.910156-1.03125zm29.769531-48v-10.113281c6.679688-4.671875 12.273438-10.765625 16.390625-17.832031 3.195313 6.847656 7.257813 13.304687 12.152344 19.226562-7.878907 5.664062-17.285157 8.71875-27.175781 8.71875zm64-304h20.6875c6.96875 0 13.625-2 19.3125-5.734375 5.6875 3.734375 12.34375 5.734375 19.3125 5.734375h20.6875v16c0 22.054688-17.945312 40-40 40s-40-17.945312-40-40zm42.230469 120h-4.46875l-5.683594-17.03125c2.457031.640625 5.074219 1.03125 7.921875 1.03125s5.464844-.390625 7.910156-1.03125zm-2.230469-48c5.558594 0 10.929688-.839844 16-2.359375v8.152344c-1.984375 3.070312-7.496094 10.207031-16 10.207031s-14.015625-7.144531-16-10.199219v-8.152343c5.070312 1.511718 10.441406 2.351562 16 2.351562zm-.9375 64h1.882812l6 48h-13.882812zm156.097656 80h-2.40625c-4.9375 0-9.816406-.792969-14.515625-2.351562l-18.847656-6.289063-4.648437 2.328125c-5.519532 2.761719-11.476563 4.648438-17.566407 5.601562 4.425781-17.945312 20.65625-31.289062 39.945313-31.289062 8.152344 0 16.039062 2.390625 22.832031 6.910156 8.167969 5.449219 17.015625 9.800782 26.328125 12.9375-8.386719 7.738282-19.441406 12.152344-31.121094 12.152344zm20.742188-34.328125c-2.382813-1.3125-4.8125-2.550781-7.078125-4.0625-9.425781-6.28125-20.382813-9.601563-31.703125-9.601563-9.015625 0-17.519532 2.160157-25.121094 5.894532v-46.078125c0-17.808594-11.457031-33.199219-28.503906-38.320313l-51.496094-15.457031v-12.160156c14.175781-9.917969 23.542969-26.207031 23.9375-44.6875 70.429688 23.59375 118.964844 89.542969 119.964844 164.472656zm-178.644532-229.671875c9.957032 0 19.308594 3.871094 26.34375 10.921875l3.664063 3.652344 1.160156.578125c6.558594 3.28125 10.664063 9.648437 11.308594 16.839844h-20.421875c-5.160156 0-10.007812-2.007813-13.65625-5.65625l-5.65625-5.65625-5.664062 5.664062c-3.640626 3.648438-8.488282 5.65625-13.648438 5.65625h-20.152344c2.578125-18.039062 17.976563-32 36.722656-32zm-53.195312 65.207031c.394531 18.480469 9.761719 34.769531 23.9375 44.6875v12.160157l-51.496094 15.449218c-17.046875 5.105469-28.503906 20.503906-28.503906 38.3125v47.429688c-8.039062-4.695313-17.183594-7.246094-26.742188-7.246094-14.480468 0-27.617187 5.824219-37.226562 15.238281.328125-75.574219 49.105469-142.277343 120.03125-166.03125zm-128.277344 259.128907c4.09375 6.945312 9.621094 12.945312 16.214844 17.550781v10.113281h-1.367188c-9.871093 0-19.273437-3.046875-27.136718-8.695312 4.984375-5.945313 9.089844-12.296876 12.289062-18.96875zm-47.785156 83.480468c0-10.679687 6.871094-19.921875 17.105469-22.992187l49.757812-14.929688 12.976563 38.921875-6.902344 55.183594h-24.9375v-56h-16v56h-32zm192 56.183594h-32v-56h-16v56h-24.9375l-6.894531-55.191406 12.976562-38.921875 49.757813 14.929687c10.226562 3.070313 17.097656 12.320313 17.097656 23zm64.128906-57.808594c-15.960937 2.183594-32.304687 2.183594-48.257812 0-.679688-17.101562-11.855469-31.734375-28.375-36.695312l-24.054688-7.214844c6.679688-3.066406 12.863282-7.265625 18.222656-12.625l5.65625-5.65625-5.664062-5.65625c-13.96875-13.96875-21.65625-32.527344-21.65625-52.28125v-20.175781c0-6.421875-1.679688-12.527344-4.648438-17.886719h170.527344c-3.742187 7.59375-5.902344 16.097656-5.910156 25.113281l-.015625 24.246094c-.007813 14.59375 5.664063 28.3125 15.984375 38.632813 2.496094 2.496093 5.199219 4.710937 8.0625 6.648437v11.398437l-51.496094 15.449219c-16.519531 4.960938-27.695312 19.601563-28.375 36.703125zm15.871094 1.625c0-10.679687 6.871094-19.921875 17.105469-22.992187l49.757812-14.929688 12.976563 38.921875-6.902344 55.183594h-24.9375v-56h-16v56h-32zm192 56.183594h-32v-56h-16v56h-24.9375l-6.894531-55.191406 12.976562-38.921875 49.757813 14.929687c10.226562 3.070313 17.097656 12.320313 17.097656 23zm0 0"/>
        <path d="m161.0625 113.441406 13.847656-8 7.996094 13.847656-13.847656 8zm0 0"/>
        <path d="m129.21875 140.515625 11.320312-11.308594 11.308594 11.320313-11.316406 11.308594zm0 0"/>
        <path d="m105.429688 174.929688 8-13.855469 13.855468 8-8 13.855469zm0 0"/>
        <path d="m91.375 214.308594 4.140625-15.453125 15.453125 4.140625-4.140625 15.453125zm0 0"/>
        <path d="m240 392h16v16h-16zm0 0"/>
        <path d="m385.011719 203 15.453125-4.140625 4.140625 15.453125-15.453125 4.140625zm0 0"/>
        <path d="m368.710938 169.085938 13.859374-8 7.996094 13.859374-13.855468 7.996094zm0 0"/>
        <path d="m344.1875 140.511719 11.308594-11.316407 11.320312 11.308594-11.3125 11.316406zm0 0"/>
        <path d="m313.058594 119.304688 8-13.847657 13.847656 7.996094-8 13.847656zm0 0"/>
        <path d="m240 280h16v96h-16zm0 0"/>
        <path d="m272 280h16v16h-16zm0 0"/>
        <path d="m272 312h16v64h-16zm0 0"/>
        <path d="m208 280h16v16h-16zm0 0"/>
        <path d="m208 312h16v64h-16zm0 0"/>
    </symbol>

    <symbol id="mirror-trading-step-1" viewBox="0 -2 496 496"><path d="m480 476.136719h16v16h-16zm0 0"/><path d="m0 476.136719h16v16h-16zm0 0"/><path d="m407.40625 366.800781c-8.574219-24.496093-28.972656-42.480469-53.429688-48.480469l-36.855468-126.351562c-8.144532-27.929688-32.648438-48.097656-61.121094-51.328125v-34.863281l125.886719-44.960938-141.886719-60.816406v140.640625c-4.832031.550781-9.558594 1.558594-14.105469 3.046875-13.710937-10.398438-31.957031-14.128906-48.488281-9.617188-11.628906-25.382812-36.980469-41.933593-65.40625-41.933593-39.703125 0-72 32.296875-72 72 0 2.894531.199219 5.773437.542969 8.640625-22.925781 3.597656-40.542969 23.429687-40.542969 47.359375 0 26.472656 21.527344 48 48 48h108.664062l-4.664062 16c-31.792969 0-60.214844 21.320312-69.113281 51.832031l-40.886719 140.167969h-18v16h440v-16h-18.320312zm-151.40625-342.527343 82.113281 35.183593-82.113281 29.328125zm12.808594 378.902343c4.574218 4.96875 10.71875 8.960938 19.144531 8.960938 16.933594 0 24.824219-15.761719 31.152344-28.425781 6.078125-12.175782 10.261719-19.574219 16.839843-19.574219 6.582032 0 10.765626 7.398437 16.855469 19.574219 6.34375 12.664062 14.222657 28.425781 31.175781 28.425781 8.457032 0 14.609376-4.007813 19.199219-8.992188l25.542969 72.992188h-185.4375zm123.496094-31.097656 4.359374 12.464844c-4.695312 8.351562-8.289062 11.59375-12.6875 11.59375-6.585937 0-10.769531-7.402344-16.855468-19.578125-6.335938-12.664063-14.226563-28.421875-31.175782-28.421875-16.945312 0-24.832031 15.757812-31.160156 28.421875-6.082031 12.175781-10.257812 19.578125-16.832031 19.578125-4.386719 0-7.960937-3.226563-12.640625-11.550781l4.375-12.507813c8.367188-23.886719 31-39.941406 56.3125-39.941406s47.945312 16.054687 56.304688 39.941406zm-56.304688-55.941406c-32.105469 0-60.800781 20.359375-71.414062 50.664062l-18.800782 53.726563-24.664062-84.558594c-7.359375-25.234375-28.082032-44.136719-53.007813-49.945312l12.542969-43c4.65625 5.128906 10.832031 9.113281 19.296875 9.113281 16.933594 0 24.824219-15.761719 31.152344-28.425781 6.078125-12.175782 10.261719-19.574219 16.839843-19.574219 6.582032 0 10.765626 7.398437 16.855469 19.574219 6.34375 12.664062 14.222657 28.425781 31.175781 28.425781 8.488282 0 14.679688-4.015625 19.351563-9.152344l21.34375 73.183594c-.222656-.007813-.449219-.03125-.671875-.03125zm-34.238281-119.679688 7.742187 26.542969c-5.183594 9.585938-8.878906 13.136719-13.527344 13.136719-6.585937 0-10.769531-7.402344-16.855468-19.578125-6.335938-12.664063-14.226563-28.421875-31.175782-28.421875-16.945312 0-24.832031 15.757812-31.160156 28.421875-6.082031 12.175781-10.257812 19.578125-16.832031 19.578125-4.632813 0-8.3125-3.535157-13.472656-13.082031l7.757812-26.597657c6.929688-23.746093 29.035157-40.320312 53.761719-40.320312s46.832031 16.574219 53.761719 40.320312zm-253.761719 55.679688c-17.648438 0-32-14.351563-32-32 0-17.648438 14.351562-32 32-32s32 14.351562 32 32h16c0-23.464844-16.9375-43.015625-39.222656-47.160157-.464844-2.914062-.777344-5.863281-.777344-8.839843 0-30.871094 25.128906-56 56-56 24.230469 0 45.609375 15.488281 53.175781 38.527343l2.753907 8.359376 8.0625-3.527344c10.488281-4.59375 22.542968-4.214844 32.761718.425781-14.089844 9.199219-24.960937 23.214844-29.867187 40.046875l-17.558594 60.167969zm104 48c24.726562 0 46.832031 16.574219 53.761719 40.320312l4.628906 15.878907c-4.445313 6.753906-7.628906 7.800781-10.414063 7.800781-6.585937 0-10.769531-7.402344-16.855468-19.578125-6.335938-12.664063-14.226563-28.421875-31.175782-28.421875-16.945312 0-24.832031 15.757812-31.160156 28.421875-6.082031 12.175781-10.257812 19.578125-16.832031 19.578125-2.769531 0-5.9375-1.058594-10.359375-7.753907l4.644531-15.925781c6.929688-23.746093 29.035157-40.320312 53.761719-40.320312zm-63.671875 74.304687c4.128906 3.367188 9.183594 5.695313 15.625 5.695313 16.933594 0 24.824219-15.761719 31.152344-28.425781 6.078125-12.175782 10.261719-19.574219 16.839843-19.574219 6.582032 0 10.765626 7.398437 16.855469 19.574219 6.34375 12.664062 14.222657 28.425781 31.175781 28.425781 6.550782 0 11.65625-2.535157 15.671876-5.785157l21.046874 72.152344-10.375 29.632813h-167.65625zm0 0"/></symbol>
    <symbol id="mirror-trading-step-2" viewBox="0 0 496 496"><path d="m496 239.609375c0-14.511719-7.816406-27.464844-20.128906-34.351563 3.832031-13.578124.21875-28.25-10.015625-38.480468l-.589844-.601563c-10.273437-10.265625-24.96875-13.894531-38.523437-10.054687-5.582032-9.960938-15.230469-16.898438-26.734376-19.210938v-136.910156h-384.007812v209.472656c-9.289062 3.3125-16 12.113282-16 22.527344v16c0 10.414062 6.710938 19.214844 16 22.527344v225.472656h384v-84.6875l32 32v-118.34375c12.039062 1.679688 24.457031-2.34375 33.816406-11.710938 10.261719-10.257812 13.886719-24.9375 10.054688-38.515624 12.304687-6.910157 20.128906-19.964844 20.128906-35.132813zm-42.089844-62.152344.59375.597657c7.328125 7.320312 8.9375 18.457031 4.015625 27.707031l-1.679687 3.160156c-7.097656-14.738281-19.03125-26.675781-33.769532-33.761719l3.152344-1.679687c9.28125-4.921875 20.410156-3.3125 27.6875 3.976562zm-96.140625 129.0625c-9.265625 4.921875-20.394531 3.304688-27.671875-3.976562l-.59375-.597657c-7.328125-7.320312-8.9375-18.457031-4.015625-27.707031l1.679688-3.160156c7.097656 14.738281 19.03125 26.675781 33.769531 33.761719zm-53.769531-66.910156c0-10.363281 6.734375-19.378906 16.753906-22.449219l3.398438-1.039062c-2.640625 7.488281-4.152344 15.503906-4.152344 23.878906s1.511719 16.390625 4.152344 23.871094l-3.398438-1.039063c-10.019531-3.0625-16.753906-12.078125-16.753906-23.222656zm23.152344-30.6875-1.679688-3.160156c-4.921875-9.25-3.304687-20.386719 4.574219-28.265625 7.328125-7.3125 18.464844-8.929688 27.714844-4.015625l3.148437 1.679687c-14.726562 7.085938-26.664062 19.023438-33.757812 33.761719zm64.847656 87.078125c-30.878906 0-56-25.128906-56-56s25.121094-56 56-56 56 25.128906 56 56-25.121094 56-56 56zm23.871094 11.847656-1.039063 3.390625c-3.0625 10.027344-12.078125 16.761719-23.222656 16.761719-10.351563 0-19.371094-6.734375-22.441406-16.761719l-1.039063-3.390625c7.488282 2.640625 15.496094 4.152344 23.871094 4.152344s16.382812-1.511719 23.871094-4.152344zm-1.039063-139.09375 1.039063 3.398438c-7.488282-2.640625-15.496094-4.152344-23.871094-4.152344s-16.382812 1.511719-23.871094 4.152344l1.039063-3.398438c3.0625-10.019531 12.078125-16.753906 23.222656-16.753906 10.363281 0 19.378906 6.734375 22.441406 16.753906zm-30.832031-152.753906v120.816406c-11.335938 2.214844-21.089844 9.207032-26.742188 19.3125-13.578124-3.839844-28.347656-.128906-39.074218 10.605469-10.261719 10.257813-13.886719 24.9375-10.054688 38.511719-1.472656.824218-2.863281 1.753906-4.199218 2.746094h-271.929688v-191.992188zm-368 216c0-4.414062 3.59375-8 8-8h267.335938c-2.144532 5-3.335938 10.527344-3.335938 16.390625 0 5.511719 1.136719 10.792969 3.207031 15.609375h-267.207031c-4.40625 0-8-3.585938-8-8zm16 248v-208h271.902344c1.34375.992188 2.746094 1.921875 4.21875 2.742188-3.832032 13.578124-.21875 28.25 10.015625 38.480468l.589843.601563c8.953126 8.945312 21.265626 12.832031 33.265626 11.152343v118.335938l32-32v68.6875zm360-99.3125-24 24v-68.640625c6.753906 5.03125 15.167969 7.953125 24.390625 7.953125 8.785156 0 16.96875-2.902344 23.609375-7.886719v68.574219zm61.953125-78.183594c-7.3125 7.320313-18.464844 8.9375-27.714844 4.015625l-3.148437-1.679687c14.734375-7.097656 26.671875-19.023438 33.765625-33.761719l1.679687 3.160156c4.90625 9.257813 3.296875 20.386719-4.582031 28.265625zm9.292969-39.671875-3.398438 1.039063c2.640625-7.480469 4.152344-15.496094 4.152344-23.871094s-1.511719-16.390625-4.152344-23.871094l3.398438 1.039063c10.019531 3.0625 16.753906 12.078125 16.753906 23.222656 0 10.363281-6.734375 19.378906-16.753906 22.441406zm0 0"/><path d="m392 200c-22.054688 0-40 17.945312-40 40s17.945312 40 40 40 40-17.945312 40-40-17.945312-40-40-40zm0 64c-13.230469 0-24-10.769531-24-24s10.769531-24 24-24 24 10.769531 24 24-10.769531 24-24 24zm0 0"/><path d="m176 32h-128v48h128zm-16 32h-96v-16h96zm0 0"/><path d="m192 32h176v16h-176zm0 0"/><path d="m192 64h176v16h-176zm0 0"/><path d="m48 96h200v16h-200zm0 0"/><path d="m48 128h200v16h-200zm0 0"/><path d="m48 160h200v16h-200zm0 0"/><path d="m264 320c-39.695312 0-72 32.296875-72 72s32.304688 72 72 72 72-32.296875 72-72-32.304688-72-72-72zm0 128c-30.878906 0-56-25.128906-56-56s25.121094-56 56-56 56 25.128906 56 56-25.121094 56-56 56zm0 0"/><path d="m48 448h96v16h-96zm0 0"/><path d="m48 416h128v16h-128zm0 0"/><path d="m48 384h128v16h-128zm0 0"/><path d="m48 352h128v16h-128zm0 0"/><path d="m48 320h128v16h-128zm0 0"/><path d="m48 288h16v16h-16zm0 0"/><path d="m80 288h96v16h-96zm0 0"/></symbol>
    <symbol id="mirror-trading-step-3" viewBox="0 0 496 496"><path d="m496 256v-64.191406c0-17.800782-11.457031-33.199219-28.503906-38.3125l-51.496094-15.449219v-12.152344c14.488281-10.132812 24-26.910156 24-45.886719v-24.007812c0-30.878906-25.121094-56-56-56s-56 25.121094-56 56v24c0 18.984375 9.511719 35.761719 24 45.886719v12.152343l-45.382812 13.617188c-17.03125-15.230469-38.730469-23.65625-61.769532-23.65625-22.945312 0-43.9375 8.40625-60.160156 22.257812l-40.6875-12.210937v-12.152344c14.488281-10.132812 24-26.910156 24-45.886719v-24.007812c0-30.878906-25.121094-56-56-56s-56 25.121094-56 56v24c0 18.984375 9.511719 35.761719 24 45.886719v12.152343l-51.496094 15.449219c-17.046875 5.121094-28.503906 20.519531-28.503906 38.320313v64.191406h16v-64.191406c0-10.679688 6.871094-19.921875 17.105469-22.984375l51.511719-15.457031c4.65625 6.046874 13.664062 14.632812 27.382812 14.632812s22.726562-8.585938 27.382812-14.632812l32.808594 9.839843c-10.414062 13.097657-17.351562 29.039063-19.457031 46.480469-10.214844-10.855469-24.679687-17.6875-40.734375-17.6875-30.878906 0-56 25.121094-56 56v24c0 18.984375 9.511719 35.761719 24 45.886719v12.152343l-51.496094 15.449219c-17.046875 5.121094-28.503906 20.519531-28.503906 38.320313v72.191406h96c4.40625 0 8 3.59375 8 8v32h288v-32c0-4.40625 3.59375-8 8-8h96v-72.191406c0-17.800782-11.457031-33.199219-28.503906-38.3125l-51.496094-15.449219v-12.152344c14.488281-10.132812 24-26.910156 24-45.886719v-24c0-30.878906-25.121094-56-56-56-15.664062 0-29.824219 6.480469-40 16.878907v-7.582031c0-15.800782-8.585938-30.023438-21.984375-37.542969l34.601563-10.386719c4.65625 6.039062 13.664062 14.625 27.382812 14.625s22.726562-8.585938 27.382812-14.632812l51.519532 15.457031c10.226562 3.0625 17.097656 12.304687 17.097656 22.984375v64.191406zm-384-240c22.054688 0 40 17.945312 40 40h-36.6875c-5.082031 0-10.066406-2.0625-13.65625-5.65625l-5.65625-5.65625-5.65625 5.65625c-3.589844 3.59375-8.574219 5.65625-13.65625 5.65625h-4.6875c0-22.054688 17.945312-40 40-40zm-40 64v-8h4.6875c6.96875 0 13.625-2 19.3125-5.734375 5.6875 3.734375 12.34375 5.734375 19.3125 5.734375h36.6875v8c0 22.054688-17.945312 40-40 40s-40-17.945312-40-40zm40 72c-8.503906 0-14.015625-7.144531-16-10.199219v-8.152343c5.070312 1.511718 10.441406 2.351562 16 2.351562s10.929688-.839844 16-2.359375v8.152344c-1.984375 3.070312-7.496094 10.207031-16 10.207031zm219.902344 140.414062c4.074218 10.347657 11.105468 19.195313 20.097656 25.480469v12.152344l-51.488281 15.449219c-1.695313.503906-3.34375 1.160156-4.953125 1.886718l-7.558594-1.742187v-15.761719c8.550781-6.871094 15.289062-15.894531 19.425781-26.238281 9.214844-.808594 17.855469-4.730469 24.476563-11.226563zm-83.902344 51.585938c8.488281 0 16.585938-1.695312 24-4.710938v8.710938l-24 18-24-18v-8.710938c7.414062 3.015626 15.511719 4.710938 24 4.710938zm-33.824219 16.632812 19.503907 14.632813-20.0625 12.039063-5.074219-25.367188zm24.984375 63.367188h17.679688l6.222656 56h-30.125zm19.070313-16h-20.46875l-4.59375-13.777344 14.832031-8.894531 14.824219 8.894531zm4.089843-32.734375 19.503907-14.632813 5.632812 1.296876-5.074219 25.367187zm59.441407-95.121094c-2.769531 3.039063-6.289063 5.167969-10.105469 6.464844.222656-2.175781.34375-4.378906.34375-6.609375v-38.28125c8.609375 3.265625 15.015625 10.839844 15.878906 19.890625.65625 6.886719-1.511718 13.460937-6.117187 18.535156zm-25.761719-.144531c0 26.472656-21.527344 48-48 48s-48-21.527344-48-48v-40h27.160156c17.433594 0 34.398438-4.351562 49.566406-12.664062l6.328126 12.664062h12.945312zm-111.65625 6.609375c-3.816406-1.296875-7.335938-3.425781-10.105469-6.464844-4.605469-5.066406-6.773437-11.648437-6.117187-18.527343.863281-9.050782 7.269531-16.632813 15.878906-19.890626v38.273438c0 2.230469.121094 4.433594.34375 6.609375zm4.230469 17.03125c4.128906 10.34375 10.867187 19.367187 19.425781 26.238281v15.761719l-7.558594 1.742187c-1.617187-.726562-3.257812-1.375-4.945312-1.886718l-51.496094-15.449219v-12.152344c8.984375-6.285156 16.023438-15.132812 20.097656-25.480469 6.621094 6.496094 15.261719 10.417969 24.476563 11.226563zm-76.574219-95.640625c22.054688 0 40 17.945312 40 40h-4.6875c-5.082031 0-10.066406-2.0625-13.65625-5.65625l-5.65625-5.65625-5.65625 5.65625c-3.589844 3.59375-8.574219 5.65625-13.65625 5.65625h-36.6875c0-22.054688 17.945312-40 40-40zm-40 64v-8h36.6875c6.96875 0 13.625-2 19.3125-5.734375 5.6875 3.734375 12.34375 5.734375 19.3125 5.734375h4.6875v8c0 22.054688-17.945312 40-40 40s-40-17.945312-40-40zm40 56c5.558594 0 10.929688-.839844 16-2.359375v8.152344c-1.984375 3.070312-7.496094 10.207031-16 10.207031s-14.015625-7.144531-16-10.199219v-8.152343c5.070312 1.511718 10.441406 2.351562 16 2.351562zm-16 112h-32v-56h-16v56h-32v-56.191406c0-10.679688 6.871094-19.921875 17.105469-22.984375l51.511719-15.457031c4.65625 6.046874 13.664062 14.632812 27.382812 14.632812s22.726562-8.585938 27.382812-14.632812l30.335938 9.105468-22.3125 5.144532c-25.558594 5.902343-43.40625 28.34375-43.40625 54.566406v9.816406h16v-9.816406c0-18.734375 12.753906-34.757813 31.007812-38.976563l41.9375-9.679687 9.429688 47.167968 16.738281-10.039062 4.734375 14.207031-7.007812 63.136719h-40.839844v-64h-16v64h-40v-16c0-13.230469-10.769531-24-24-24zm366.894531-79.175781c10.234375 3.0625 17.105469 12.304687 17.105469 22.984375v56.191406h-32v-56h-16v56h-32c-13.230469 0-24 10.769531-24 24v16h-40v-64h-16v64h-40.839844l-7.015625-63.136719 4.734375-14.207031 16.738282 10.039062 9.429687-47.167968 41.945313 9.679687c18.253906 4.21875 31.007812 20.242188 31.007812 38.976563v9.816406h16v-9.816406c0-26.222656-17.847656-48.664063-43.40625-54.566406l-22.3125-5.144532 30.335938-9.105468c4.65625 6.046874 13.664062 14.632812 27.382812 14.632812s22.726562-8.585938 27.382812-14.632812zm-62.894531-27.023438c-1.984375 3.0625-7.496094 10.199219-16 10.199219-8.519531 0-14.039062-7.167969-16-10.199219v-8.160156c5.070312 1.519531 10.441406 2.359375 16 2.359375s10.929688-.839844 16-2.359375zm-16-21.800781c-22.054688 0-40-17.945312-40-40v-8h4.6875c6.96875 0 13.625-2 19.3125-5.734375 5.6875 3.734375 12.34375 5.734375 19.3125 5.734375h36.6875v8c0 22.054688-17.945312 40-40 40zm0-104c22.054688 0 40 17.945312 40 40h-36.6875c-5.082031 0-10.066406-2.0625-13.65625-5.65625l-5.65625-5.65625-5.65625 5.65625c-3.589844 3.59375-8.574219 5.65625-13.65625 5.65625h-4.6875c0-22.054688 17.945312-40 40-40zm-56 24.679688c-7.078125-5.359376-15.871094-8.679688-25.375-8.679688h-9.679688l-9.839843-19.679688-7.539063 5.023438c-14.390625 9.59375-31.125 14.65625-48.40625 14.65625h-33.785156c-9.503906 0-18.296875 3.320312-25.375 8.679688v-11.832032c0-42.367187 34.480469-76.847656 76.847656-76.847656 20.527344 0 39.832032 7.992188 54.34375 22.503906l8.488282 8.488282 1.792968.601562c11.078125 3.695312 18.527344 14.023438 18.527344 25.703125zm56-216.679688c22.054688 0 40 17.945312 40 40h-4.6875c-5.082031 0-10.066406-2.0625-13.65625-5.65625l-5.65625-5.65625-5.65625 5.65625c-3.589844 3.59375-8.574219 5.65625-13.65625 5.65625h-36.6875c0-22.054688 17.945312-40 40-40zm-40 64v-8h36.6875c6.96875 0 13.625-2 19.3125-5.734375 5.6875 3.734375 12.34375 5.734375 19.3125 5.734375h4.6875v8c0 22.054688-17.945312 40-40 40s-40-17.945312-40-40zm40 72c-8.519531 0-14.039062-7.167969-16-10.199219v-8.160156c5.070312 1.519531 10.441406 2.359375 16 2.359375s10.929688-.839844 16-2.359375v8.152344c-1.984375 3.070312-7.496094 10.207031-16 10.207031zm0 0"/><path d="m184 0h16v16h-16zm0 0"/><path d="m184 32h16v88h-16zm0 0"/><path d="m296 0h16v16h-16zm0 0"/><path d="m296 32h16v88h-16zm0 0"/><path d="m216 32h16v56h-16zm0 0"/><path d="m216 104h16v16h-16zm0 0"/><path d="m264 32h16v56h-16zm0 0"/><path d="m264 104h16v16h-16zm0 0"/></symbol>
    <symbol id="mirror-trading-step-4" viewBox="0 0 496 496"><path d="m488 96h8v-96h-496v96h8c13.230469 0 24 10.769531 24 24s-10.769531 24-24 24h-8v96h128v78.054688c0 22.898437 8.496094 44.488281 24 61.167968v20.777344h-16v48h16v48h192v-48h16v-48h-16v-36.777344c15.503906-16.679687 24-38.269531 24-61.167968v-62.054688h128v-96h-8c-13.230469 0-24-10.769531-24-24s10.769531-24 24-24zm-160 384h-160v-32h160zm16-48h-192v-16h192zm8-129.945312c0 19.753906-7.6875 38.320312-21.65625 52.289062l-2.34375 2.34375v43.3125h-160v-27.3125l-2.34375-2.34375c-13.96875-13.96875-21.65625-32.535156-21.65625-52.289062v-118.054688c0-4.40625 3.59375-8 8-8 13.230469 0 24 10.769531 24 24v52l3.199219 2.398438c18.03125 13.53125 28.800781 35.058593 28.800781 57.601562h16c0-26.191406-11.886719-51.265625-32-67.878906v-20.121094h160zm128-142.863282v64.808594h-64v-24h-16v24h-208v-8c0-22.054688-17.945312-40-40-40-13.230469 0-24 10.769531-24 24v24h-32v-24h-16v24h-64v-64.808594c18.230469-3.710937 32-19.871094 32-39.191406s-13.769531-35.480469-32-39.191406v-64.808594h64v24h16v-24h304v24h16v-24h64v64.808594c-18.230469 3.710937-32 19.878906-32 39.191406s13.769531 35.480469 32 39.191406zm0 0"/><path d="m248 32c-48.519531 0-88 39.480469-88 88s39.480469 88 88 88 88-39.480469 88-88-39.480469-88-88-88zm0 160c-39.695312 0-72-32.304688-72-72s32.304688-72 72-72 72 32.304688 72 72-32.304688 72-72 72zm0 0"/><path d="m219.558594 89.34375 8.882812 13.3125 19.558594-13.039062v70.382812h16v-88h-18.425781zm0 0"/><path d="m80 56h16v32h-16zm0 0"/><path d="m80 104h16v32h-16zm0 0"/><path d="m80 152h16v32h-16zm0 0"/><path d="m400 56h16v32h-16zm0 0"/><path d="m400 104h16v32h-16zm0 0"/><path d="m400 152h16v32h-16zm0 0"/><path d="m432 312h16v16h-16zm0 0"/><path d="m432 344h16v16h-16zm0 0"/><path d="m448 328h16v16h-16zm0 0"/><path d="m416 328h16v16h-16zm0 0"/><path d="m56 256h16v16h-16zm0 0"/><path d="m56 288h16v16h-16zm0 0"/><path d="m72 272h16v16h-16zm0 0"/><path d="m40 272h16v16h-16zm0 0"/><path d="m32 432h16v16h-16zm0 0"/><path d="m32 464h16v16h-16zm0 0"/><path d="m48 448h16v16h-16zm0 0"/><path d="m16 448h16v16h-16zm0 0"/><path d="m392 432h16v16h-16zm0 0"/><path d="m392 464h16v16h-16zm0 0"/><path d="m408 448h16v16h-16zm0 0"/><path d="m376 448h16v16h-16zm0 0"/></symbol>
    <symbol id="mirror-trading-step-5" viewBox="0 0 496 496"><path d="m369.246094 296h126.753906v-160h-137.832031c-6.3125-6.910156-13.375-13.207031-21.191407-18.679688l-22.480468-15.734374 34.480468-62.074219c1.976563-3.566407 3.023438-7.589844 3.023438-11.65625v-3.855469c0-13.230469-10.769531-24-24-24-14.441406 0-21.574219 11.414062-26.792969 19.761719-5.328125 8.511719-8.183593 12.238281-13.230469 12.238281-5.046874 0-7.90625-3.726562-13.222656-12.238281-5.21875-8.335938-12.363281-19.761719-26.800781-19.761719-14.433594 0-21.5625 11.414062-26.777344 19.761719-5.320312 8.511719-8.175781 12.238281-13.214843 12.238281-5.03125 0-7.882813-3.726562-13.191407-12.238281-5.21875-8.335938-12.34375-19.761719-26.769531-19.761719-13.230469 0-24 10.769531-24 24v3.855469c0 4.066406 1.046875 8.089843 3.023438 11.65625l4.710937 8.488281h-151.734375v160h104.894531c-.582031 4.953125-.894531 9.953125-.894531 15 0 48.625 27.054688 91.015625 66.886719 113h-66.886719v8c0 39.703125 32.296875 72 72 72h31.3125c-1.648438 10.296875-6.425781 19.800781-13.9375 27.3125l-4.6875 4.6875h-12.6875c-22.054688 0-40 17.945312-40 40v8h224v-8c0-22.054688-17.945312-40-40-40h-12.6875l-4.6875-4.6875c-7.511719-7.511719-12.28125-17.015625-13.9375-27.3125h31.3125c39.703125 0 72-32.296875 72-72v-8h-66.886719c17.640625-9.734375 32.75-23.480469 44.132813-40zm79.5625-16c3.191406-15.648438 15.542968-28 31.191406-31.191406v31.191406zm31.191406-96.808594c-15.648438-3.191406-28-15.542968-31.191406-31.191406h31.191406zm-47.359375-31.191406c3.527344 24.472656 22.886719 43.832031 47.359375 47.359375v33.28125c-24.472656 3.527344-43.832031 22.886719-47.359375 47.359375h-54.089844c8.527344-17.214844 13.449219-36.519531 13.449219-57 0-25.585938-7.648438-50.191406-21.367188-71zm-272.640625-128c0-4.40625 3.585938-8 8-8 5.023438 0 7.871094 3.726562 13.183594 12.230469 5.214844 8.34375 12.34375 19.769531 26.777344 19.769531 14.4375 0 21.566406-11.425781 26.78125-19.761719 5.320312-8.511719 8.179687-12.238281 13.210937-12.238281 5.046875 0 7.902344 3.726562 13.230469 12.238281 5.214844 8.347657 12.351562 19.761719 26.792968 19.761719 14.4375 0 21.582032-11.425781 26.800782-19.761719 5.320312-8.511719 8.175781-12.238281 13.222656-12.238281 4.414062 0 8 3.59375 8 8v3.855469c0 1.351562-.351562 2.695312-1.007812 3.878906l-35.695313 64.265625h-102.59375l-35.695313-64.257812c-.65625-1.191407-1.007812-2.535157-1.007812-3.886719zm-112.808594 40c-3.191406 15.648438-15.542968 28-31.191406 31.191406v-31.191406zm-31.191406 96.808594c15.648438 3.191406 28 15.542968 31.191406 31.191406h-31.191406zm47.359375 31.191406c-3.527344-24.472656-22.886719-43.832031-47.359375-47.359375v-33.28125c24.472656-3.527344 43.832031-22.886719 47.359375-47.359375h97.265625l20.878906 37.585938-9.808594 6.863281c-7.597656-16.914063-24.550781-28.449219-43.695312-28.449219-26.472656 0-48 21.527344-48 48 0 21.527344 14.246094 39.785156 33.800781 45.855469-2.425781 5.878906-4.472656 11.9375-6.015625 18.144531zm57.617187-32.832031c-14.273437-3.214844-24.976562-15.945313-24.976562-31.167969 0-17.648438 14.351562-32 32-32 13.847656 0 25.960938 9.03125 30.265625 21.886719-15.503906 11.023437-28.121094 25.183593-37.289063 41.28125zm221.65625 320.832031h-189.265624c3.304687-9.3125 12.199218-16 22.632812-16h144c10.433594 0 19.328125 6.6875 22.632812 16zm-57.039062-32h-75.1875c7.160156-9.335938 11.65625-20.304688 13.066406-32h49.0625c1.410156 11.695312 5.898438 22.664062 13.058594 32zm-109.59375-48c-15.207031 0-28.984375-6.128906-39.089844-16h222.167969c-10.101563 9.871094-23.878906 16-39.085937 16zm199.433594-48c-.816406 5.65625-2.511719 11.015625-4.890625 16h-245.078125c-2.375-4.984375-4.082032-10.34375-4.890625-16zm-112.433594-16h-30c-62.304688 0-113-50.695312-113-113 0-36.839844 18.015625-71.449219 48.191406-92.574219l26.328125-18.425781h106.953125l26.328125 18.425781c30.183594 21.125 48.199219 55.734375 48.199219 92.574219 0 62.304688-50.695312 113-113 113zm0 0"/><path d="m248 176c13.230469 0 24 10.769531 24 24h16c0-19.3125-13.769531-35.472656-32-39.191406v-16.808594h-16v16.808594c-18.230469 3.71875-32 19.871094-32 39.191406 0 22.054688 17.945312 40 40 40 13.230469 0 24 10.769531 24 24s-10.769531 24-24 24-24-10.769531-24-24h-16c0 19.3125 13.769531 35.472656 32 39.191406v16.808594h16v-16.808594c18.230469-3.71875 32-19.871094 32-39.191406 0-22.054688-17.945312-40-40-40-13.230469 0-24-10.769531-24-24s10.769531-24 24-24zm0 0"/></symbol>

    <symbol id="calc-1" viewBox="0 0 565.12 480"><path d="M325.72,475a8,8,0,0,0,7.4,5h224a8,8,0,0,0,8-8V184a8,8,0,0,0-8-8h-224a8,8,0,0,0-8,8Zm223.4-11h-208V256h208Zm0-224h-208V192h208Z"/><path d="M397.12,272h-32a8,8,0,0,0-8,8v32a8,8,0,0,0,8,8h32a8,8,0,0,0,8-8V280A8,8,0,0,0,397.12,272Zm-8,32h-16V288h16Z"/><path d="M461.12,272h-32a8,8,0,0,0-8,8v32a8,8,0,0,0,8,8h32a8,8,0,0,0,8-8V280A8,8,0,0,0,461.12,272Zm-8,32h-16V288h16Z"/><path d="M525.12,272h-32a8,8,0,0,0-8,8v32a8,8,0,0,0,8,8h32a8,8,0,0,0,8-8V280A8,8,0,0,0,525.12,272Zm-8,32h-16V288h16Z"/><path d="M397.12,336h-32a8,8,0,0,0-8,8v32a8,8,0,0,0,8,8h32a8,8,0,0,0,8-8V344A8,8,0,0,0,397.12,336Zm-8,32h-16V352h16Z"/><path d="M461.12,336h-32a8,8,0,0,0-8,8v32a8,8,0,0,0,8,8h32a8,8,0,0,0,8-8V344A8,8,0,0,0,461.12,336Zm-8,32h-16V352h16Z"/><path d="M397.12,400h-32a8,8,0,0,0-8,8v32a8,8,0,0,0,8,8h32a8,8,0,0,0,8-8V408A8,8,0,0,0,397.12,400Zm-8,32h-16V416h16Z"/><path d="M461.12,400h-32a8,8,0,0,0-8,8v32a8,8,0,0,0,8,8h32a8,8,0,0,0,8-8V408A8,8,0,0,0,461.12,400Zm-8,32h-16V416h16Z"/><path d="M525.12,336h-32a8,8,0,0,0-8,8v96a8,8,0,0,0,8,8h32a8,8,0,0,0,8-8V344A8,8,0,0,0,525.12,336Zm-8,96h-16V352h16Z"/><rect x="517.12" y="208" width="16" height="16"/><rect x="485.12" y="208" width="16" height="16"/><rect x="453.12" y="208" width="16" height="16"/><path d="M332.66,239.87H8a8,8,0,0,0-8,8V472a8,8,0,0,0,8,8H345.36a8,8,0,0,0,0-16H16V255.87H332.26Z"/><path d="M334.35,183.29,47.11,118.66a8,8,0,0,0-9.57,6.07L18.86,208.78a8,8,0,0,0,15.64,3.47L51.43,136,334,199.62Z"/><path d="M375.3,156.4,151.17,63a8,8,0,0,0-10.27,3.82l-18.68,37.36a8,8,0,0,0,14.13,7.63c.09-.15.16-.31.24-.46h0l15.32-30.66,217.21,90.5a8,8,0,1,0,6.18-14.81Z"/><path d="M232.13,277.75a82.18,82.18,0,1,0,82.18,82.18A82.18,82.18,0,0,0,232.13,277.75Zm0,149.42a67.24,67.24,0,1,1,67.24-67.24A67.24,67.24,0,0,1,232.13,427.17Z"/><path d="M157.42,426.63H86.83L53.36,390v-60.7l37-36.09h67.1a8,8,0,0,0,0-16H87.07a8,8,0,0,0-5.6,2.27L39.75,320.18a10,10,0,0,0-2.4,6.54v66.41a8,8,0,0,0,2.09,5.4L77.38,440a8,8,0,0,0,5.91,2.61h74.13a8,8,0,0,0,0-16Z"/><path d="M236.8,350.59h-9.34c-2.9,0-4.67-1.62-4.67-2.33s1.77-2.33,4.67-2.33h23.35a9.34,9.34,0,0,0,0-18.68h-9.34a9.34,9.34,0,0,0-18.68,0v.42a21.74,21.74,0,0,0-18.68,20.54,22.3,22.3,0,0,0,23.35,21.06h9.34c2.9,0,4.67,1.63,4.67,2.34s-1.77,2.33-4.67,2.33H213.45a9.34,9.34,0,1,0,0,18.68h9.34a9.34,9.34,0,0,0,18.68,0v-.42a21.75,21.75,0,0,0,18.68-20.55A22.31,22.31,0,0,0,236.8,350.59Z"/></symbol>
    <symbol id="calc-2" viewBox="0 0 480 480"><path d="M195.35,299.34l-17.64-5.86A14.2,14.2,0,0,1,168,280a16,16,0,0,1,32,0h16a32,32,0,0,0-24-30.86V232H176v17.14A32,32,0,0,0,152,280a30.19,30.19,0,0,0,20.65,28.66l17.64,5.86A14.2,14.2,0,0,1,200,328a16,16,0,0,1-32,0H152a32,32,0,0,0,24,30.86V376h16V358.86A32,32,0,0,0,216,328,30.19,30.19,0,0,0,195.35,299.34Z"/><path d="M472,176H310.27A184.31,184.31,0,0,0,248,126.51V92l28.8-21.6A8,8,0,0,0,280,64V8a8,8,0,0,0-8-8H240a8,8,0,0,0-5.65,2.34L224,12.69,213.66,2.34A8,8,0,0,0,208,0H160a8,8,0,0,0-5.66,2.34L144,12.69,133.66,2.34A8,8,0,0,0,128,0H96a8,8,0,0,0-8,8V64a8,8,0,0,0,3.2,6.4L120,92v34.59c-60.56,29.31-120,108-120,209C0,427.35,67.06,480,184,480a308.7,308.7,0,0,0,56.6-5,8,8,0,0,0,7.4,5H472a8,8,0,0,0,8-8V184A8,8,0,0,0,472,176ZM104,60V16h20.69l13.66,13.66a8,8,0,0,0,11.31,0L163.31,16h41.38l13.66,13.66a8,8,0,0,0,11.31,0L243.31,16H264V60L237.34,80H130.66ZM232,96v24H136V96Zm8,275.78a88,88,0,1,1,0-135.56V371.78ZM240,184v32.46a104,104,0,1,0,0,175.08v67.28A291.44,291.44,0,0,1,184,464c-50.51,0-168-12.51-168-128.44C16,259,61.87,163.79,138.67,136h90.72a157.65,157.65,0,0,1,59.46,40H248A8,8,0,0,0,240,184ZM464,464H256V256H464Zm0-224H256V192H464Z"/><path d="M312,272H280a8,8,0,0,0-8,8v32a8,8,0,0,0,8,8h32a8,8,0,0,0,8-8V280A8,8,0,0,0,312,272Zm-8,32H288V288h16Z"/><path d="M376,272H344a8,8,0,0,0-8,8v32a8,8,0,0,0,8,8h32a8,8,0,0,0,8-8V280A8,8,0,0,0,376,272Zm-8,32H352V288h16Z"/><path d="M440,272H408a8,8,0,0,0-8,8v32a8,8,0,0,0,8,8h32a8,8,0,0,0,8-8V280A8,8,0,0,0,440,272Zm-8,32H416V288h16Z"/><path d="M312,336H280a8,8,0,0,0-8,8v32a8,8,0,0,0,8,8h32a8,8,0,0,0,8-8V344A8,8,0,0,0,312,336Zm-8,32H288V352h16Z"/><path d="M376,336H344a8,8,0,0,0-8,8v32a8,8,0,0,0,8,8h32a8,8,0,0,0,8-8V344A8,8,0,0,0,376,336Zm-8,32H352V352h16Z"/><path d="M312,400H280a8,8,0,0,0-8,8v32a8,8,0,0,0,8,8h32a8,8,0,0,0,8-8V408A8,8,0,0,0,312,400Zm-8,32H288V416h16Z"/><path d="M376,400H344a8,8,0,0,0-8,8v32a8,8,0,0,0,8,8h32a8,8,0,0,0,8-8V408A8,8,0,0,0,376,400Zm-8,32H352V416h16Z"/><path d="M440,336H408a8,8,0,0,0-8,8v96a8,8,0,0,0,8,8h32a8,8,0,0,0,8-8V344A8,8,0,0,0,440,336Zm-8,96H416V352h16Z"/><rect x="432" y="208" width="16" height="16"/><rect x="400" y="208" width="16" height="16"/><rect x="368" y="208" width="16" height="16"/></symbol>
</svg>