<!DOCTYPE svg PUBLIC "-//W3C//DTD SVG 20010904//EN" "http://www.w3.org/TR/2001/REC-SVG-20010904/DTD/svg10.dtd">
<svg version="1.0" xmlns="http://www.w3.org/2000/svg" width="339px" height="91px" viewBox="0 0 3390 910" preserveAspectRatio="xMidYMid meet">
<g id="layer101" fill="#ffffff" stroke="none">
 <path d="M164 893 c3 -10 14 -58 25 -108 16 -77 44 -163 76 -238 7 -18 5 -17 -33 2 -51 26 -72 26 -105 1 -37 -30 -41 -66 -17 -169 12 -50 19 -95 16 -100 -11 -17 -45 -19 -73 -4 -25 13 -29 12 -40 -3 -34 -47 2 -104 65 -104 30 0 45 7 70 33 37 39 38 41 15 174 -14 84 -15 104 -4 117 29 35 53 17 245 -178 203 -206 251 -241 395 -294 85 -31 182 -28 256 7 67 33 199 166 262 266 29 44 60 91 71 105 31 40 103 70 182 77 38 3 70 10 70 14 0 27 -98 42 -175 28 -65 -12 -69 -10 -79 52 -5 29 -17 47 -52 76 -51 42 -84 95 -65 101 36 12 70 55 80 103 6 27 11 52 11 54 0 3 -34 5 -76 5 l-76 0 6 -27 c4 -14 2 -39 -5 -55 -10 -24 -17 -28 -51 -28 -56 0 -77 -15 -104 -75 -13 -30 -33 -59 -44 -65 -18 -10 -28 -5 -70 34 -28 24 -71 57 -98 72 -26 15 -48 28 -50 29 -1 1 7 22 18 46 31 69 31 69 -70 69 -49 0 -90 -4 -90 -9 0 -5 6 -26 14 -47 7 -22 16 -60 20 -86 l7 -48 -103 0 c-57 0 -112 -2 -123 -5 -15 -3 -28 7 -50 38 -23 31 -43 46 -78 57 -47 15 -47 15 -28 35 10 11 22 30 26 43 6 22 5 22 -85 22 -82 0 -91 -2 -86 -17z m1090 -429 c-21 -14 -57 -43 -79 -64 -73 -69 -131 -83 -123 -29 4 28 47 55 148 90 96 34 101 35 54 3z"/>
 <path d="M2957 880 c-16 -5 -35 -14 -43 -21 -11 -9 -14 -8 -14 5 0 14 -16 16 -120 16 l-120 0 0 -162 -1 -163 -67 163 -67 163 -35 -3 -34 -3 -63 -155 -62 -155 -1 158 0 157 -52 0 -53 -1 -60 -100 -60 -99 -3 100 -3 100 -39 0 -40 0 0 -166 0 -165 52 3 51 3 61 100 61 99 3 -102 3 -103 86 3 85 3 36 98 36 97 39 -100 39 -100 159 0 159 0 0 35 0 35 -75 0 -75 0 0 30 0 30 70 0 70 0 0 35 0 35 -70 0 -70 0 0 30 0 30 80 0 c57 0 80 4 80 13 0 6 12 -1 26 -17 23 -26 26 -27 43 -12 21 19 64 21 80 3 15 -18 -9 -38 -72 -61 -53 -20 -67 -39 -67 -91 0 -77 100 -126 183 -91 20 8 37 11 37 5 0 -5 55 -9 130 -9 l130 0 0 35 c0 35 0 35 -45 35 l-45 0 0 130 0 130 -40 0 -40 0 0 -130 0 -130 -45 0 c-28 0 -45 -4 -45 -12 0 -6 -10 -2 -22 10 -18 16 -27 18 -41 11 -28 -16 -72 -7 -72 15 0 13 12 23 40 33 64 21 83 34 96 65 15 38 -2 102 -35 123 -28 19 -102 27 -139 15z"/>
 <path d="M1491 727 c-24 -83 -46 -158 -49 -164 -3 -9 9 -13 41 -13 l45 0 23 96 23 96 32 -94 31 -93 39 0 38 0 30 95 29 95 26 -97 26 -98 77 0 78 0 0 165 0 165 -40 0 -40 0 -1 -147 0 -148 -43 145 -43 145 -38 0 -38 0 -32 -100 -31 -100 -34 103 -34 102 -36 0 -35 0 -44 -153z"/>
 </g>

</svg>